
<global>
amp_veltrack=0
ampeg_attack=0.002
ampeg_release=0.35
</global>

<group>
group_label=PP
lpc_hicc1=42
lpc_locc1=0

<region>
end=352025
hikey=g#4
hivel=127
lokey=g4
loop_end=280877
loop_mode=loop_continuous
loop_start=67303
loop_xfade=41490
lovel=1
lpc=pkKAQfRRI8IayzBCLSv2wQOOpUH9LYTB/atcQUY1N8HAdOdAV0gAwHDcTb+aEjRAbVDfwMF0I0GWuuXAPbA+QDTfT8Ctxb5A4sKPwIVDkz95C6q/cJASQCdRLMCr7dA/
lpc_rms=-45.45
pitch_keycenter=g#4
sample=Solocello_trill_maj3rd_PP_G#4.opus
</region>

<region>
end=369764
hikey=g#3
hivel=127
lokey=g3
loop_end=289208
loop_mode=loop_continuous
loop_start=82841
loop_xfade=43581
lovel=1
lpc=I0mxQe8oW8LjLUdCQsm7wUyaVEFi5ybBGpm4QN4mqsBcYIlAWL2gv563uz9FKDvAE46CvwE6AUHzSAbBBlRHQALaw76A3Uw/aD2oPwekW8Btt+k/qv9TvtPQUL8sPFo/
lpc_rms=-47.44
offset=10722
pitch_keycenter=g#3
sample=Solocello_trill_maj3rd_PP_G#3.opus
</region>

<region>
end=373777
hikey=g#2
hivel=127
lokey=g2
loop_end=303759
loop_mode=loop_continuous
loop_start=82236
loop_xfade=44054
lovel=1
lpc=65ALQuxnocIxh2FCNwoxwR25RkFqXX3Ba5ukP9RyE0Daxbg9QHnVPm4Ybz+JETi/PFynwDxCLkEDOMXAVDOiPgMFKcDD+kBAxVAeQGPkLsBhyAHAVRV9QLomncBFMDtA
lpc_rms=-47.99
offset=12650
pitch_keycenter=g#2
sample=Solocello_trill_maj3rd_PP_G#2.opus
</region>

<region>
end=347671
hikey=G#6
hivel=127
lokey=f5
loop_end=272129
loop_mode=loop_continuous
loop_start=72686
loop_xfade=40977
lovel=1
lpc=d+AZQY9+rsExQL1BALaZwaSAdkFURk/Bh0UkQTudxcCvQltAq/5lvtswCcCyUSpAojQRwEn8qj9IGxS/0BR8P7NIjL/3V+I/UBPWv7wwTT40Zp8/oqaZvxkLvT8tc1y/
lpc_rms=-48.69
pitch_keycenter=F#5
sample=Solocello_trill_maj3rd_PP_F#5.opus
</region>

<region>
end=372737
hikey=f#4
hivel=127
lokey=f4
loop_end=279490
loop_mode=loop_continuous
loop_start=78048
loop_xfade=43932
lovel=1
lpc=TMjsQDJAjsGfrphBNv9qwcaAPUF9uxvBwG/oQEeDo8CZMURAA3chv7k6p79wGgJALhM/wDPMdEByNTLA4a30PzGSVcAYmZlARX2NwEFQXEB4WSvAlJ8HQCDXsb+xt/Q+
lpc_rms=-54.08
offset=12536
pitch_keycenter=f#4
sample=Solocello_trill_maj3rd_PP_F#4.opus
</region>

<region>
end=359252
hikey=f#3
hivel=127
lokey=f3
loop_end=275071
loop_mode=loop_continuous
loop_start=71538
loop_xfade=42342
lovel=1
lpc=AaelQdWPUsLuRUtCKG/UwaXpa0GB/ifBE9akQEKPbcAyCkVAbuGzv1qO6D92RQHAtPxMwKy7JUHgoDTB1o/6QMwXtsDCRnhAUpDdPxzyrsA8DRVAkbHcP8oTJsBO5o0/
lpc_rms=-48.79
pitch_keycenter=f#3
sample=Solocello_trill_maj3rd_PP_F#3.opus
</region>

<region>
end=345304
hikey=f#2
hivel=127
lokey=f2
loop_end=264757
loop_mode=loop_continuous
loop_start=69624
loop_xfade=40698
lovel=1
lpc=iQADQlocoMJTG3lCtVB/wb3WPkGkYYvBWzRBQbtgEcG3MhI/Y79mPwV2VkD/hoBA6aQSwSpo7EBTSmHAS1lfwLuFn0BGeuE/pklCwOSIF8BF9UxAj4HQP+1YhMAba9M/
lpc_rms=-46.40
pitch_keycenter=f#2
sample=Solocello_trill_maj3rd_PP_F#2.opus
</region>

<region>
end=355595
hikey=e5
hivel=127
lokey=d#5
loop_end=274490
loop_mode=loop_continuous
loop_start=61612
loop_xfade=41911
lovel=1
lpc=BWUDQVcFnsEuZ6xBcA2EwadwTUGPyxfBZ7u6QMzGZ8CtZQlATrIqP0/O+78gwAk/V5snvkYl8D8eg0DAJ6VcQJPXOcDsCfI/68kFv1+ucz5c/T6+iS5gv4Ocoz+VLeO+
lpc_rms=-49.91
pitch_keycenter=e5
sample=Solocello_trill_maj3rd_PP_E5.opus
</region>

<region>
end=372421
hikey=e4
hivel=127
lokey=d#4
loop_end=289039
loop_mode=loop_continuous
loop_start=75024
loop_xfade=43894
lovel=1
lpc=eeZwQW6dGcJgyiNCYzbjwT6mpUFtRYXBbeQ6QayC+8BahpxAs+ApwDe0Sj/84RtARyLpwCCLFEFbQMPAmPR6QMAVpMDnPadALhwnwOAAHD8Q6Lk9B9iqPKfxJL/TzA0/
lpc_rms=-47.11
offset=8023
pitch_keycenter=e4
sample=Solocello_trill_maj3rd_PP_E4.opus
</region>

<region>
end=340840
hikey=e3
hivel=127
lokey=d#3
loop_end=285103
loop_mode=loop_continuous
loop_start=87702
loop_xfade=40172
lovel=1
lpc=FpDPQSQkh8K7UIZCE6AOwvc9mUHQZmvBgeUjQcyjG8GHCAFBiUUgwFg7Yb/OGik/UMJfwCHzDkHKuArBc/2CQG/6OMAuIYdAcM6Fv8xt8L8zMfe+d5YlQIz38b/zwCE/
lpc_rms=-46.06
offset=9812
pitch_keycenter=e3
sample=Solocello_trill_maj3rd_PP_E3.opus
</region>

<region>
end=354538
hikey=e2
hivel=127
lokey=d#2
loop_end=278437
loop_mode=loop_continuous
loop_start=72004
loop_xfade=41787
lovel=1
lpc=um/gQa32gcI7eDRCx6wJwcGjKUEpXmXBX1HdQBrK4cBjYG9A3DmtvZmF3z8iGN8/ABrJwMA2skDLId++2NDjv2Getr88moJAtBJlwMt83T+Ap6S+CIZUP6/ZJMBWwMc/
lpc_rms=-45.01
pitch_keycenter=e2
sample=Solocello_trill_maj3rd_PP_E2.opus
</region>

<region>
end=356912
hikey=d5
hivel=127
lokey=c#5
loop_end=282028
loop_mode=loop_continuous
loop_start=74473
loop_xfade=42066
lovel=1
lpc=KBcOQYtSqcHVlrVBXqGMwdpGV0G0SCLBuoznQBTLnMDc3DpAZZE/v3uHUD/1oxy/fxU1wLBEtEC4R6nA72OLQBcBj8Ccw5lAG9RawGrMyD8GOIe/EFvOPwlNsb+8+gE/
lpc_rms=-49.00
pitch_keycenter=d5
sample=Solocello_trill_maj3rd_PP_D5.opus
</region>

<region>
end=373597
hikey=d4
hivel=127
lokey=c#4
loop_end=288357
loop_mode=loop_continuous
loop_start=86005
loop_xfade=44033
lovel=1
lpc=/iZMQU16AsL14QVC0tCbwf9YLEEJ6vXAiwOEQHDeaL819W+/yaiyPxhFKr+ZzQI/Wn8ewH99g0CuQD7AuuoHQCTCSMCp12ZAIyYGwFHsOD/I9vK+opC6Pz2SHcCpBZ8/
lpc_rms=-51.79
offset=17832
pitch_keycenter=d4
sample=Solocello_trill_maj3rd_PP_D4.opus
</region>

<region>
end=370436
hikey=d3
hivel=127
lokey=c#3
loop_end=281431
loop_mode=loop_continuous
loop_start=80769
loop_xfade=43660
lovel=1
lpc=7I+kQSpBRsKB4iRCK9BqwfOru0CRCx7ATBoIwKtfUD/4DpU/TF4UwGMUHz/C0HFAaAaKwJcbpECNOdbAbcw1QDevgz/INwNA+BJywLUodT8b1D+/gaC3P32xkL+h7ww/
lpc_rms=-50.96
offset=8979
pitch_keycenter=d3
sample=Solocello_trill_maj3rd_PP_D3.opus
</region>

<region>
end=326317
hikey=d2
hivel=127
lokey=c#2
loop_end=224336
loop_mode=loop_continuous
loop_start=67261
loop_xfade=38460
lovel=1
lpc=wsMSQgvCrsLUL3pCnvZSwUjyh0HlfKvBuu2oQCwFt798Txg/Z9xrPp2eO0A/qsU/IIgTwUCOOkGjGprALW8kwK01sz6v8iZAvrTSvkFQE79/O0+/WU/4Py8/Y8APBhBA
lpc_rms=-46.27
pitch_keycenter=d2
sample=Solocello_trill_maj3rd_PP_D2.opus
</region>

<region>
end=370686
hikey=c5
hivel=127
lokey=b4
loop_end=277466
loop_mode=loop_continuous
loop_start=81148
loop_xfade=43690
lovel=1
lpc=dQoJQVyWq8GSk75B6baGwXdOMkHM3QvBKnnVQBU3lMDQ9FBApf6gv34t2L1fjzw+Dfd6v16lFkCVZDbA/NRHQMu3WcCtrW9AUwlVwGkyMkAS/xvAZxINQDXtBMDV0pY/
lpc_rms=-53.36
offset=15009
pitch_keycenter=c5
sample=Solocello_trill_maj3rd_PP_C5.opus
</region>

<region>
end=363778
hikey=c4
hivel=127
lokey=b3
loop_end=279415
loop_mode=loop_continuous
loop_start=66102
loop_xfade=42876
lovel=1
lpc=D6KpQUdZWcIi7FVCmkTuwc6ukUEzk1bBeybuQFp6pcCcNV1AFtrovsDTvb7l99w+58VgwDWr+UDb2fXAq9NvQDCNQ8CmqohAs/P/v7cndT4J3sa/p1kvQIXIFsBr1IU/
lpc_rms=-46.90
pitch_keycenter=c4
sample=Solocello_trill_maj3rd_PP_C4.opus
</region>

<region>
end=352087
hikey=c3
hivel=127
lokey=b2
loop_end=284517
loop_mode=loop_continuous
loop_start=79249
loop_xfade=41498
lovel=1
lpc=LEgEQrL9n8J+4nRCHORnwa/kHUF9V2DBgfxYQDMbZz8Hxeg+iMyev99uKz/MxxBAw56/wFw4F0GxlPjATPhFQDyBQcBvmYtAiIrEv7kgGb8WIAC/sU63P0DBEsCvBME/
lpc_rms=-48.46
pitch_keycenter=c3
sample=Solocello_trill_maj3rd_PP_C3.opus
</region>

<region>
end=357761
hivel=127
key=c2
loop_end=268039
loop_mode=loop_continuous
loop_start=78994
loop_xfade=42166
lovel=1
lpc=AeICQpPPm8L/UV1CqGo9wfCtjUGODKrBQ7+JQPLRVL8LmTM/CNdlvl/SfUCmefa+H7PEwO5v0EA9PL2/rPbWvjRVK8Cvm3dA+nSJv0q4Lb9imKm/z9ISQFWtnL/vG8w+
lpc_rms=-46.53
sample=Solocello_trill_maj3rd_PP_C2.opus
</region>

<region>
end=370635
hikey=a#4
hivel=127
lokey=a4
loop_end=292920
loop_mode=loop_continuous
loop_start=86016
loop_xfade=43684
lovel=1
lpc=8ObwQJBQk8HQ1J1BM3ZVwXO2BEH9w7XAAPWKQE5ia8Dz1C5AncnVv27Enj/op96+qwfBv9f7YkAYoG3AxWUoQPbgGMD1CCxATOvov+FETD/yNbC+eyjhPkXjEb+kAaM+
lpc_rms=-53.16
offset=10413
pitch_keycenter=a#4
sample=Solocello_trill_maj3rd_PP_A#4.opus
</region>

<region>
end=359279
hikey=a#3
hivel=127
lokey=a3
loop_end=282968
loop_mode=loop_continuous
loop_start=73828
loop_xfade=42345
lovel=1
lpc=q/iAQYoQGMK/GvRBnKoGwSKqzT8HBTTAY2cBP33pcT/MTGk/4OcwwKm3F0DD7JO/Dj8kP3N1Dz+RcATA/OilP38NED//kOq+GmTHvTRagL6lNkg+9XvKPoeaBr/1tjQ+
lpc_rms=-52.45
offset=11605
pitch_keycenter=a#3
sample=Solocello_trill_maj3rd_PP_A#3.opus
</region>

<region>
end=325439
hikey=a#2
hivel=127
lokey=a2
loop_end=272221
loop_mode=loop_continuous
loop_start=83739
loop_xfade=38357
lovel=1
lpc=sIToQZTYiMLBglBCqEZ7wfSpREEfB2HBiv2iQGHZST+aKGbA/awoQIagFj/UBNg9kUiNwKwVD0ERbtLAFWijP5B9RMBrpLJAWtE9Px83h8BWRA7AXBKeQN7YFsABlzY/
lpc_rms=-48.18
offset=7895
pitch_keycenter=a#2
sample=Solocello_trill_maj3rd_PP_A#2.opus
</region>
</group>

<group>
group_label=MF
lpc_hicc1=84
lpc_locc1=43

<region>
end=299622
hikey=g#4
hivel=127
lokey=g4
loop_end=250626
loop_mode=loop_continuous
loop_start=55001
loop_xfade=35314
lovel=1
lpc=3A4KQe2knMGQdpNBM/46wXcnG0FPeBbBVBXlQMJnnsCRi4dAd+VpwDQWOEDdmsq/2PUGvz6t1T/kQry/N5FGPzPiYr/Fyu4/gYqqv+h2JD9EJjG/WxFSP4Nw5L7CGDI+
lpc_rms=-33.42
pitch_keycenter=g#4
sample=Solocello_trill_maj3rd_MF_G#4.opus
</region>

<region>
end=303066
hikey=g#3
hivel=127
lokey=g3
loop_end=253506
loop_mode=loop_continuous
loop_start=77982
loop_xfade=35720
lovel=1
lpc=FDCHQcUsIMJ4PA1C/K6OwfyEREG4DSrBagTMQLwFksCFOr1AwAXWwA7JakD3Ulk/FoGBwEIbuEAbhYjALi4kPxVTOz/rxnI/vewQwCv72T8igbC+aE9Bv1PWUz9WzCu+
lpc_rms=-31.66
pitch_keycenter=g#3
sample=Solocello_trill_maj3rd_MF_G#3.opus
</region>

<region>
end=341626
hikey=g#2
hivel=127
lokey=g2
loop_end=276283
loop_mode=loop_continuous
loop_start=69660
loop_xfade=40265
lovel=1
lpc=DkKbQaiKRML0DjZCKM21wRwQf0F8LFrB3HIDQUKd08AiZbNAOWa1wELSgUDVdOg/EYm/wE0FsUBFWg3AMc77PsxeGMC1HJhAIeiAwFj1qz9gYTS/DHuaP1pvNL+rlwY+
lpc_rms=-31.86
pitch_keycenter=g#2
sample=Solocello_trill_maj3rd_MF_G#2.opus
</region>

<region>
end=305873
hikey=G#6
hivel=127
lokey=f5
loop_end=255854
loop_mode=loop_continuous
loop_start=78704
loop_xfade=36051
lovel=1
lpc=libfQFopXsF1iU5BCAwFwWuC2ECHkcPAZk+fQBtti8Cpa6VA41WOwHWDRECNII2/s//Vvu4GTj9sia6+soPYPzl6LcDkM15A8zRewApsKUC5K6S/vAHZPzsApr9cbgo/
lpc_rms=-36.21
offset=19626
pitch_keycenter=F#5
sample=Solocello_trill_maj3rd_MF_F#5.opus
</region>

<region>
end=364468
hikey=f#4
hivel=127
lokey=f4
loop_end=278674
loop_mode=loop_continuous
loop_start=73855
loop_xfade=42957
lovel=1
lpc=rOLLQHPhYMGnjlJBnz4GweXi1UD34L/A+P+FQCOOHsBYtgxAI5NLwEQdakDcbAXAOkZjPZ8FeT8ygYy/b9QTP3UdSL+9wdc/LnW7vzA7zz4W1nY9tHj/vXNjmz38tDU+
lpc_rms=-37.31
pitch_keycenter=f#4
sample=Solocello_trill_maj3rd_MF_F#4.opus
</region>

<region>
end=297372
hikey=f#3
hivel=127
lokey=f3
loop_end=248744
loop_mode=loop_continuous
loop_start=76517
loop_xfade=35049
lovel=1
lpc=cSSdQf4QP8JfRTJCyIy1wVLuTUGdxy7BGq3KQMNWfsAvRLtAlxoRwcNyAEE2jRnA9UUwwLi7nkBsKznARrw/wNeatUBeUQvAAmBlP1iyM8DqN7o/lvnBP9es2r8vYBI/
lpc_rms=-33.53
pitch_keycenter=f#3
sample=Solocello_trill_maj3rd_MF_F#3.opus
</region>

<region>
end=291150
hikey=f#2
hivel=127
lokey=f2
loop_end=243539
loop_mode=loop_continuous
loop_start=74916
loop_xfade=34315
lovel=1
lpc=HbROQmK27sLVzKNCRFGRwTQm3kFx0gnCfM5UQesUO8G5o2BBg5ggwfNdFEF1Mty/vqZfwTIemkH4oQXATpPvwEkICsAdv4ZAOEvGPyiIOj44gSLAy72jP08uJcBPDgVA
lpc_rms=-33.37
pitch_keycenter=f#2
sample=Solocello_trill_maj3rd_MF_F#2.opus
</region>

<region>
end=285374
hikey=e5
hivel=127
lokey=d#5
loop_end=238707
loop_mode=loop_continuous
loop_start=73430
loop_xfade=33634
lovel=1
lpc=em8jQfaZo8G2FIhBsQsbwQbCAkHAdOjAdeWKQNSnp798HoQ/0XEwwGgrbkCZgznAghgfQPSOsb+Bn3U/iCaxv3m4Rz/HXwY/lQ7IPmu+s7+OpSg/pK4EQCuM2L/CL3g+
lpc_rms=-32.61
pitch_keycenter=e5
sample=Solocello_trill_maj3rd_MF_E5.opus
</region>

<region>
end=313372
hikey=e4
hivel=127
lokey=d#4
loop_end=262127
loop_mode=loop_continuous
loop_start=80634
loop_xfade=36935
lovel=1
lpc=ssQtQTxSxsEe0bdBWy1bwezAH0GsOBHBvcTTQCixgMD3tIBAq6G4wKe6t0Blfm7AtUgwvio6ekBmrYXAqgIVQKIVFcCipGhAl6ofwDyPlz3WXyk++FNFPz0hVb+lNBg/
lpc_rms=-29.85
offset=13267
pitch_keycenter=e4
sample=Solocello_trill_maj3rd_MF_E4.opus
</region>

<region>
end=305575
hikey=e3
hivel=127
lokey=d#3
loop_end=255605
loop_mode=loop_continuous
loop_start=78627
loop_xfade=36016
lovel=1
lpc=bRh/QahUG8K7URFCGc2gwTeyWkH6HCDBDweFQBWYYMC5K9pAT5jqwObpX0DqGNs9FZQ8wNPBu0CEOtPAI4CoQJ57XsDtYAxATgQiwP/wX0AhQiDAxRKEPua2Tz+t4a2+
lpc_rms=-30.55
pitch_keycenter=e3
sample=Solocello_trill_maj3rd_MF_E3.opus
</region>

<region>
end=337395
hikey=e2
hivel=127
lokey=d#2
loop_end=268218
loop_mode=loop_continuous
loop_start=73406
loop_xfade=39766
lovel=1
lpc=EOsuQuhlz8JtPJtCAWDXwZH/AUKOCPHB+40VQf91MsEzBS1BmD7VwPcCM0EMD6vAtS0EwcaUOkFJQ6i/OVO6wHmvlD+yR4E/JVJaQKoQisDPnu8/2rqiP8JVncCWHkxA
lpc_rms=-33.56
pitch_keycenter=e2
sample=Solocello_trill_maj3rd_MF_E2.opus
</region>

<region>
end=292222
hikey=d5
hivel=127
lokey=c#5
loop_end=244436
loop_mode=loop_continuous
loop_start=75192
loop_xfade=34442
lovel=1
lpc=sZwDQZOxicHa8n1Bs7s2wXQSH0Fh3/HAiAWrQKXcg8CRFYpAIH6WwEkHfEB6eUzAmYohQMq4KL8gMvq9eT0APdCmJr4Xi6s/uK6vv2YMMT9op4W+LIGiPn7Fkz4GL2++
lpc_rms=-35.45
pitch_keycenter=d5
sample=Solocello_trill_maj3rd_MF_D5.opus
</region>

<region>
end=343514
hikey=d4
hivel=127
lokey=c#4
loop_end=275873
loop_mode=loop_continuous
loop_start=73767
loop_xfade=40487
lovel=1
lpc=syfvQIEghMH/r3BBYQUWwRmj4EDkKq3AW8VSQKFuH8D6CD1AjX1jwDWLSECMPd+/E76WPdIigj/p0Ti/2y3bPbYRPL/kzcw//byqvzpgDj+Mbhg+jkPKvug3jj5JCz+8
lpc_rms=-32.33
pitch_keycenter=d4
sample=Solocello_trill_maj3rd_MF_D4.opus
</region>

<region>
end=294565
hikey=d3
hivel=127
lokey=c#3
loop_end=246396
loop_mode=loop_continuous
loop_start=75794
loop_xfade=34718
lovel=1
lpc=fophQVygBcKfo9xB/1Mlwdr0xUCwWrbACkNsQIKhicA4K49AxidnwLIBGz8/lllAPCWHwCmn9j/Ks6w/SksvwPx1GUA9rgfAwjDfP7/Vo7+KPKM/JyPIv9JSYj/tJpa9
lpc_rms=-31.06
pitch_keycenter=d3
sample=Solocello_trill_maj3rd_MF_D3.opus
</region>

<region>
end=282380
hikey=d2
hivel=127
lokey=c#2
loop_end=236203
loop_mode=loop_continuous
loop_start=72659
loop_xfade=33282
lovel=1
lpc=0iErQmrJwsJgH31CnFIawZbBokGZttLBL+bsQHxop8A1n9tAdA3bwHmr8EAog3K+GJjSwNqX10CuzhRAzq78wKR/QL8UJrdAh9PQvmGE0b9lDDE/ptSQPNA4QMALBiFA
lpc_rms=-31.60
pitch_keycenter=d2
sample=Solocello_trill_maj3rd_MF_D2.opus
</region>

<region>
end=315306
hikey=c5
hivel=127
lokey=b4
loop_end=263745
loop_mode=loop_continuous
loop_start=81131
loop_xfade=37163
lovel=1
lpc=jNsWQYdxpcHC15tB2HBawTemLUFu6wnBwWPpQEJNwcAT6LRAVw3IwJa4wEDeCJDAI0jJP2HZmj+mjRy/sticvjVWWr8BTyFA6PwnwB70LEAi9TrAUkkFQIRqnr+MRWk/
lpc_rms=-35.43
pitch_keycenter=c5
sample=Solocello_trill_maj3rd_MF_C5.opus
</region>

<region>
end=297393
hikey=c4
hivel=127
lokey=b3
loop_end=248761
loop_mode=loop_continuous
loop_start=76522
loop_xfade=35051
lovel=1
lpc=/eKbQb0lP8IqUzNCErbHwak0ikE+RGHBnkgHQQoYzcCB5ftAIGsEwU06z0Ah2RfAkHZXwIb+ykDZm5DAOHjUP4h+fb+JQYo+H5wrP2JWtT5V1Bm/PJS5v+DyDECwChe/
lpc_rms=-31.27
pitch_keycenter=c4
sample=Solocello_trill_maj3rd_MF_C4.opus
</region>

<region>
end=304787
hikey=c3
hivel=127
lokey=b2
loop_end=254946
loop_mode=loop_continuous
loop_start=78425
loop_xfade=35923
lovel=1
lpc=KpSoQQSWTsIZ1TRCqEamwe25aUEwkTXBWdWIQPoLhMAWucpAWjDqwAXfmUDnXYw/5kOpwCATvUCxFx3AVfnbv1MsrD/PN5U/zIGsv+Jnsz9xcee/oG+VP6NFRr80A+k+
lpc_rms=-28.19
pitch_keycenter=c3
sample=Solocello_trill_maj3rd_MF_C3.opus
</region>

<region>
end=298028
hivel=127
key=c2
loop_end=249292
loop_mode=loop_continuous
loop_start=76686
loop_xfade=35126
lovel=1
lpc=ZcAlQl3OusIG5mVCf077wCuUwkH4ouDBovjeQCHd1MDJzAVBi7wIweh69kA8lx5ACs/kwLhRtUDOOxO/QA54wLra1b5SFmpACbRpv6adtj6ge2G/j+FtP4ThF8AWJtE/
lpc_rms=-31.15
sample=Solocello_trill_maj3rd_MF_C2.opus
</region>

<region>
end=225121
hikey=a#4
hivel=127
lokey=a4
loop_end=168521
loop_mode=loop_continuous
loop_start=45650
loop_xfade=26533
lovel=1
lpc=2ZuyQF7wNsF6xyZBDG/VwEA9q0Cz+YvAoB4+QPrB0b/YH4A/wLeCv+7zcj86Q1u+IjtbvuY4pz1aHlM8560NvqRnCD/qQyM+PWZ6v65LND+Z+fc+9n4evzYX0z2cF78+
lpc_rms=-37.32
pitch_keycenter=a#4
sample=Solocello_trill_maj3rd_MF_A#4.opus
</region>

<region>
end=300037
hikey=a#3
hivel=127
lokey=a3
loop_end=250973
loop_mode=loop_continuous
loop_start=77202
loop_xfade=35363
lovel=1
lpc=dEB6QYKTFcKoiAdC7vh3wei30kBiZbbAY4IlQHXkdb6bREpASe/bwJaj3UAwU2TAwncQPjqigz+VYHO/dyeJv69uckBdUBDAdNAQvwKuXT+2Pza+wv9uvtl4E74+nqM+
lpc_rms=-35.41
pitch_keycenter=a#3
sample=Solocello_trill_maj3rd_MF_A#3.opus
</region>

<region>
end=336917
hikey=a#2
hivel=127
lokey=a2
loop_end=281822
loop_mode=loop_continuous
loop_start=86692
loop_xfade=39710
lovel=1
lpc=W1eHQfoCJ8KkphVCo9GRwT+3XEHG2UTB2JHhQIrMq8C9QqBAFh2nwI+gY0BxANA/PxitwMBvqEA7lxjA4EXKPpfOj7/iJew/A2mDv6Z19D5+ecC+wDeAvtLZiT781NQ9
lpc_rms=-30.69
pitch_keycenter=a#2
sample=Solocello_trill_maj3rd_MF_A#2.opus
</region>
</group>

<group>
group_label=FF
lpc_hicc1=127
lpc_locc1=85

<region>
end=297997
hikey=g#4
hivel=127
lokey=g4
loop_end=249266
loop_mode=loop_continuous
loop_start=76678
loop_xfade=35122
lovel=1
lpc=l3TBQD++TMH30UVBJqsWwZDmB0HW0PjACUGvQJTOM8AUsaU/ckZlvYQgSr8ND+Q+gUJOv2n+yD+ZKQ+/toYfvyyXyj1b51Q/OnWBvh3aB7+scFI/VelBv+uEXD8Xq8i+
lpc_rms=-27.59
pitch_keycenter=g#4
sample=Solocello_trill_maj3rd_FF_G#4.opus
</region>

<region>
end=307265
hikey=g#3
hivel=127
lokey=g3
loop_end=257019
loop_mode=loop_continuous
loop_start=79062
loop_xfade=36215
lovel=1
lpc=xzZDQZtS3cFh2cZB/XxtwdRANkFD2iDBQ1+3QLFD57+EBt8/KZJKwEleSkA4T7+/D0ktwIB56EDnDtfAvccqQGO1w79YERVA3vsLvzSXlL87ZlA/IheOvwmh6z9BdmC/
lpc_rms=-28.39
pitch_keycenter=g#3
sample=Solocello_trill_maj3rd_FF_G#3.opus
</region>

<region>
end=300633
hikey=g#2
hivel=127
lokey=g2
loop_end=251471
loop_mode=loop_continuous
loop_start=77356
loop_xfade=35433
lovel=1
lpc=rOv8QXNzmMKAVndCMnm1wScQmEGZCa/Begs6Qf0HCMF6QA1BgGzMwBms6UB/fRDBiUyDQIzBiUBsNYzAlXCnv9A4oz/2zdQ/fKbCP3dmfcClPJo/JAy2P4ibBcBKAmY/
lpc_rms=-23.31
pitch_keycenter=g#2
sample=Solocello_trill_maj3rd_FF_G#2.opus
</region>

<region>
end=303541
hikey=G#6
hivel=127
lokey=f5
loop_end=253904
loop_mode=loop_continuous
loop_start=78104
loop_xfade=35776
lovel=1
lpc=4XECQfHIdMEeD1BBb6AIwaje+UDeHaTAwravP1H3pr4XzwxARP87wJqaGUCauZK/TW8sP5Je3j8XTVPABXwwQOliDsCwTEJAqBLjv6UCZz7vfto+iyBwP04lfb8JqA8/
lpc_rms=-24.03
pitch_keycenter=F#5
sample=Solocello_trill_maj3rd_FF_F#5.opus
</region>

<region>
end=306607
hikey=f#4
hivel=127
lokey=f4
loop_end=256468
loop_mode=loop_continuous
loop_start=78893
loop_xfade=36137
lovel=1
lpc=SHLPQNROWMFTe0RB90wTwYkVBkGvetDA3gSPQOgvZsAdGzlAL7ICwL8N5z8CxIO/7IQTvxwQ5D9sLpe/WeB2PnEyF78OVpY/i62dvivNrL5E5h2+0z46Pj7IBz+MyaC+
lpc_rms=-26.36
pitch_keycenter=f#4
sample=Solocello_trill_maj3rd_FF_F#4.opus
</region>

<region>
end=290463
hikey=f#3
hivel=127
lokey=f3
loop_end=242964
loop_mode=loop_continuous
loop_start=74739
loop_xfade=34234
lovel=1
lpc=0qmSQSkfH8KsyO5Bhvk3wR3mCkHEKxDBTRGvQD6il8CdJaNAlwuXwO3PjEAgUBPA5XsvwL9/uEArvPO/bkDxv5fx7T/6Rr2/5Tb2P3AQkb8pSCQ+wJnZPhD09L8Q8Ls/
lpc_rms=-26.43
pitch_keycenter=f#3
sample=Solocello_trill_maj3rd_FF_F#3.opus
</region>

<region>
end=293657
hikey=f#2
hivel=127
lokey=f2
loop_end=245636
loop_mode=loop_continuous
loop_start=75561
loop_xfade=34611
lovel=1
lpc=vYMxQhWf1MJdqKZC+7y7wc+sWUFi6pbB1GYbQXBd58Du+EVAjSC4QGnYGcCBQmHA3rekwOrGU0HX/wW/HRhBwQolgED0mO1A5y5IwIm5vcC7w91ATepEwITN0j42udg7
lpc_rms=-21.16
pitch_keycenter=f#2
sample=Solocello_trill_maj3rd_FF_F#2.opus
</region>

<region>
end=303716
hikey=e5
hivel=127
lokey=d#5
loop_end=254050
loop_mode=loop_continuous
loop_start=78149
loop_xfade=35797
lovel=1
lpc=85zbQIi3RsFM1B5BDW7RwLhg0UACyrPAkmWKQKlTZ8B3rCxA3Wubvwswjz+wPaW/Nj62Po/TSz8tS1y+Fs/cvrNYzj7Svf0+J4TbvjfeCT/8nNs+Aim1vwSGuT+PtFq+
lpc_rms=-28.14
pitch_keycenter=e5
sample=Solocello_trill_maj3rd_FF_E5.opus
</region>

<region>
end=300790
hikey=e4
hivel=127
lokey=d#4
loop_end=251603
loop_mode=loop_continuous
loop_start=77396
loop_xfade=35452
lovel=1
lpc=haZcQedZ98HpzOBB7WeMwQ8lWUE8tkDBWfIDQdLXhsD3V5I/JLKzvicGtz+Q/u+/zLIAvyDoK0B3UMS/lARhP0Md0L8FbwhAgyqhv12Gnb6ZKuY/9L63vyS7w728dsQ+
lpc_rms=-22.98
pitch_keycenter=e4
sample=Solocello_trill_maj3rd_FF_E4.opus
</region>

<region>
end=302653
hikey=e3
hivel=127
lokey=d#3
loop_end=253161
loop_mode=loop_continuous
loop_start=77876
loop_xfade=35671
lovel=1
lpc=DWy1QYGhUMKNmy1Ckl6uwU7zikE/tmXBIhHiQJ2Vw8AN3A1BN+EmwTj/NUFQ/gHBH3kBwBYwJUH+IQLBGX0VQBmyw79nfhFASjLNPsA1CsC2/hNArnVMwK6oKECqg0y/
lpc_rms=-25.70
pitch_keycenter=e3
sample=Solocello_trill_maj3rd_FF_E3.opus
</region>

<region>
end=310379
hikey=e2
hivel=127
lokey=d#2
loop_end=259624
loop_mode=loop_continuous
loop_start=79864
loop_xfade=36582
lovel=1
lpc=QJYlQvK3xMLcyZVC+JynwTymkUE6MMvB4GxiQc38EsEiNApBqnLmwMU1IUH0HTPBwMB0P7SmEkEWppK///zuwHoJGL9JFMpAYcOvP/LbpMByMeE/dQ3nP+Xnh8BAYBVA
lpc_rms=-20.84
pitch_keycenter=e2
sample=Solocello_trill_maj3rd_FF_E2.opus
</region>

<region>
end=309823
hikey=d5
hivel=127
lokey=c#5
loop_end=259158
loop_mode=loop_continuous
loop_start=79721
loop_xfade=36516
lovel=1
lpc=YxT3QKDgasHKIU9BdWMiwWoKDUFYTbDAR2WJQBaAWcAbgbU/Othjv5b7+j/mrK+/hwRKPl4jYT+RDza/uGDzPn1DwL7m+wQ/4VjdPqgHBr8QSB8/Qe81v/h8FD/qLEI+
lpc_rms=-25.28
pitch_keycenter=d5
sample=Solocello_trill_maj3rd_FF_D5.opus
</region>

<region>
end=304123
hikey=d4
hivel=127
lokey=c#4
loop_end=254391
loop_mode=loop_continuous
loop_start=78254
loop_xfade=35845
lovel=1
lpc=vlQPQc2TpMHvS6BBEZpswbGiWUElK0bBADYNQRTjuMDAjH1A7JQVwJoY0z8n3nG/xlrQv2LETEDAtr6/k+wMv+SxYT14g4c/v+Yvv/1R7D6DxPe8k3UQv6xN7D44LfK9
lpc_rms=-26.12
pitch_keycenter=d4
sample=Solocello_trill_maj3rd_FF_D4.opus
</region>

<region>
end=294587
hikey=d3
hivel=127
lokey=c#3
loop_end=246414
loop_mode=loop_continuous
loop_start=75800
loop_xfade=34721
lovel=1
lpc=Og/MQei5bcJ0WEFCS/eawW0mSUFfizvB5unmQHvB/8BUffxAhhTOwBmd/UAYXcrADoPCvxzauUBRIdI/A6QEwdDSqkAtbS2/Hp64P/vuacCgI29ARN9PwJNmGkAD4WG/
lpc_rms=-23.44
pitch_keycenter=d3
sample=Solocello_trill_maj3rd_FF_D3.opus
</region>

<region>
end=293083
hikey=d2
hivel=127
lokey=c#2
loop_end=245156
loop_mode=loop_continuous
loop_start=75413
loop_xfade=34543
lovel=1
lpc=wfYwQt26z8L1RZpC9WiVwb6TVEHnxY7BFRyjQPtzA8BgPai9oAcNQTAHDcF9FqtAPS9CwS/DgUG/7mS/UEgzwXH8I0A88MlA3F3Jv+lnUsC126JACM7nwFCGlUCanWO/
lpc_rms=-21.83
pitch_keycenter=d2
sample=Solocello_trill_maj3rd_FF_D2.opus
</region>

<region>
end=313712
hikey=c5
hivel=127
lokey=b4
loop_end=262412
loop_mode=loop_continuous
loop_start=80721
loop_xfade=36975
lovel=1
lpc=aV++QBUxKMGJ5gNBlB+9wKHsxUBa1rnAmIyZQNDOTMDPxeA/ndH3v08hCEB2Jn2/ncRPv9Irqz/CdG++UDIDvrjIyb5bp8M/jlKUv9SQgj/yrG2/2GQdPwqY8b5eD+4+
lpc_rms=-27.49
offset=17999
pitch_keycenter=c5
sample=Solocello_trill_maj3rd_FF_C5.opus
</region>

<region>
end=306288
hikey=c4
hivel=127
lokey=b3
loop_end=256202
loop_mode=loop_continuous
loop_start=78811
loop_xfade=36100
lovel=1
lpc=g/haQc9R9sG1cNZB5AmBwT53WUETsyjBOcuVQAB/zr+4ugBASMOGwHIvs0CLUVrAzB42wF4A7EBmPr7AktJZQB++ZMD/aVJA9Lz3vpjjBr+5zpw+rVGgv6vkiz+0WTi9
lpc_rms=-26.58
pitch_keycenter=c4
sample=Solocello_trill_maj3rd_FF_C4.opus
</region>

<region>
end=275434
hikey=c3
hivel=127
lokey=b2
loop_end=230393
loop_mode=loop_continuous
loop_start=70872
loop_xfade=32463
lovel=1
lpc=ISn0QWcOkMJ4yWxCSrG/wYhgbUHrGkXBqbG0QN7K0MDXh8JASTKtwKGdLEHOgQzBfZAcwBANDkEmR7K/qWG6wF37MEAPDLQ+dNI6QC5Yw8BmN9BACSDAwLfsJ0BKHBG9
lpc_rms=-22.75
pitch_keycenter=c3
sample=Solocello_trill_maj3rd_FF_C3.opus
</region>

<region>
end=345958
hivel=127
key=c2
loop_end=289384
loop_mode=loop_continuous
loop_start=89018
loop_xfade=40775
lovel=1
lpc=e/cFQjl5oMLwI25CE6FWwbwga0GSbrbBnoIyQcq7xsBIOmlA4bTKvhqm5UANRy/BmcG0P7wJo0CSkPc/XlfNwFUtqz5DLW9AIoRDP4POksAY0DBAOVRkvv8EM79VztE+
lpc_rms=-21.65
sample=Solocello_trill_maj3rd_FF_C2.opus
</region>

<region>
end=306491
hikey=a#4
hivel=127
lokey=a4
loop_end=256371
loop_mode=loop_continuous
loop_start=78863
loop_xfade=36124
lovel=1
lpc=A46XQLh5E8GA0wBBut7BwPKIu0CrWZjAn+ZzQGzhS8CeXQpAkzfDv1hZxj+OpFe/Eirlvl0Hhz8HgR6/DzMGP1OLhL8lnq8/oPCFv2DQRj8TSy++HbrDva2RE7qjJNo9
lpc_rms=-29.34
pitch_keycenter=a#4
sample=Solocello_trill_maj3rd_FF_A#4.opus
</region>

<region>
end=307279
hikey=a#3
hivel=127
lokey=a3
loop_end=257030
loop_mode=loop_continuous
loop_start=79066
loop_xfade=36216
lovel=1
lpc=BRYzQRp/xcG0kaNBAWEZwe1M20DEl+7AqKKvQLDjfMCgUElAGLgNwKJDwD/s1iS+uDIAwIh6IkAyTDi/w9QVv+ZfSj7LN5A+EqpnP+VTkL+WF70+LJhDv5AGJT+Rxj+6
lpc_rms=-29.13
pitch_keycenter=a#3
sample=Solocello_trill_maj3rd_FF_A#3.opus
</region>

<region>
end=309990
hikey=a#2
hivel=127
lokey=a2
loop_end=259298
loop_mode=loop_continuous
loop_start=79764
loop_xfade=36536
lovel=1
lpc=NcLPQakGc8LQJz5CqMSRwSVXcUEb71rB68DUQGYsrMCztFVA4+aRwE0oGkH/IYLA5p74wGwVKUFidmnA3zVLv7J/P8BMwptAHGCiP5hiUcAlNwI/DNPFv2iv5T8Nq5u+
lpc_rms=-24.53
pitch_keycenter=a#2
sample=Solocello_trill_maj3rd_FF_A#2.opus
</region>
</group>